<?xml version="1.0" standalone="no"?>
<!DOCTYPE svg PUBLIC "-//W3C//DTD SVG 20010904//EN"
 "http://www.w3.org/TR/2001/REC-SVG-20010904/DTD/svg10.dtd">
<svg version="1.0" xmlns="http://www.w3.org/2000/svg"
 viewBox="0 0 2600.000000 2600.000000"
 preserveAspectRatio="xMidYMid meet">
<metadata>
Created by potrace 1.15, written by Peter Selinger 2001-2017
</metadata>
<g transform="translate(0.000000,2600.000000) scale(0.100000,-0.100000)"
fill="#000000" stroke="none">
<path d="M16818 22114 c-30 -9 -65 -32 -97 -62 -58 -55 -7914 -10974 -7943
-11040 -20 -45 -1018 -5802 -1018 -5873 0 -53 26 -131 60 -178 62 -86 182
-132 289 -111 39 7 755 369 2695 1361 1452 744 2655 1361 2672 1373 17 12 44
37 61 56 27 32 7817 10856 7884 10956 83 121 68 284 -34 381 -75 71 -4316
3115 -4369 3135 -57 21 -134 22 -200 2z m642 -1034 c241 -173 439 -318 439
-323 1 -10 -7496 -10430 -7512 -10441 -9 -6 -153 93 -467 319 -250 179 -454
330 -452 333 1 4 1693 2357 3759 5229 3398 4723 3759 5221 3775 5210 10 -6
216 -154 458 -327z m1473 -1060 c295 -212 535 -390 534 -396 -3 -18 -7500
-10436 -7513 -10441 -14 -5 -1086 765 -1082 777 7 19 7513 10449 7519 10447 3
-1 247 -175 542 -387z m1430 -1030 c219 -157 396 -290 395 -296 -2 -6 -1692
-2358 -3757 -5228 -2320 -3224 -3758 -5215 -3766 -5212 -28 10 -796 569 -793
576 7 19 7514 10449 7519 10447 3 -1 184 -130 402 -287z m-9355 -9870 c952
-685 1727 -1248 1724 -1251 -13 -12 -2107 -1082 -2118 -1082 -14 0 -1754 1252
-1754 1262 0 11 388 2269 395 2299 3 13 10 22 14 20 5 -2 787 -563 1739 -1248z"/>
</g>
</svg>
