<?xml version="1.0" standalone="no"?>
<!DOCTYPE svg PUBLIC "-//W3C//DTD SVG 20010904//EN"
 "http://www.w3.org/TR/2001/REC-SVG-20010904/DTD/svg10.dtd">
<svg version="1.0" xmlns="http://www.w3.org/2000/svg"
 viewBox="0 0 2600.000000 2600.000000"
 preserveAspectRatio="xMidYMid meet">
<metadata>
Created by potrace 1.15, written by Peter Selinger 2001-2017
</metadata>
<g transform="translate(0.000000,2600.000000) scale(0.100000,-0.100000)"
fill="#000000" stroke="none">
<path d="M10044 21810 c-81 -26 -148 -85 -185 -165 l-29 -60 0 -782 0 -783
-1367 -2 -1368 -3 -89 -28 c-139 -43 -224 -82 -321 -145 -481 -313 -861 -1008
-915 -1672 -7 -79 -10 -303 -8 -540 l3 -405 33 -67 c39 -79 93 -129 169 -158
51 -19 78 -20 494 -20 343 0 441 -3 444 -12 2 -7 263 -2529 579 -5605 473
-4592 580 -5602 596 -5646 24 -63 92 -136 159 -169 l46 -23 4785 -3 c5262 -2
4838 -7 4928 59 58 43 99 106 118 181 8 35 271 2558 585 5608 313 3050 572
5560 575 5578 l5 32 439 0 c424 0 441 1 496 21 73 27 136 86 171 158 l28 56 3
430 c4 469 -4 607 -44 800 -77 365 -279 790 -506 1060 -219 261 -436 411 -708
488 -75 21 -83 21 -1437 24 l-1362 3 -3 783 -3 782 -23 51 c-29 64 -102 136
-167 166 l-50 23 -3005 2 c-2948 2 -3006 2 -3066 -17z m5686 -1200 l0 -590
-2635 0 -2635 0 0 590 0 590 2635 0 2635 0 0 -590z m3376 -1269 c76 -38 104
-59 194 -150 223 -224 384 -532 463 -886 16 -76 20 -138 24 -392 l5 -303
-6702 0 -6702 0 5 298 c4 252 8 311 26 392 108 496 429 969 725 1072 49 17
323 17 5962 15 l5911 -2 89 -44z m-466 -2388 c0 -25 -1092 -10649 -1106
-10756 l-6 -47 -4439 0 c-4265 0 -4439 1 -4439 18 0 10 -250 2441 -555 5402
-305 2961 -555 5390 -555 5397 0 11 1030 13 5550 13 l5550 0 0 -27z"/>
<path d="M9540 15924 c-112 -41 -188 -129 -210 -242 -7 -37 76 -870 406 -4067
227 -2211 418 -4060 424 -4109 14 -118 40 -175 106 -235 63 -58 123 -81 210
-81 161 0 296 119 311 274 7 71 -833 8206 -853 8269 -22 65 -99 148 -166 177
-69 30 -168 36 -228 14z"/>
<path d="M13045 15916 c-75 -32 -155 -113 -179 -182 -15 -44 -16 -393 -16
-4170 l0 -4123 21 -56 c28 -75 99 -146 176 -175 46 -18 73 -21 133 -18 126 7
213 68 269 188 l26 55 3 4085 c2 2911 0 4103 -8 4149 -14 80 -39 131 -91 180
-89 87 -222 114 -334 67z"/>
<path d="M16750 15931 c-98 -32 -179 -105 -210 -189 -17 -45 -94 -770 -440
-4126 -231 -2239 -420 -4094 -420 -4123 0 -73 33 -154 84 -207 65 -66 116 -89
212 -94 73 -4 88 -1 143 23 74 34 142 104 166 173 17 49 855 8119 855 8238 0
33 -7 82 -16 108 -22 65 -100 148 -166 176 -57 24 -165 35 -208 21z"/>
</g>
</svg>
